<svg width="78" height="125" viewBox="0 0 78 125" fill="none" xmlns="http://www.w3.org/2000/svg">
<g clip-path="url(#clip0)">
<path d="M0.0786133 62.8591C1.54396 70.8261 2.82437 78.8215 4.28972 86.7885C8.88495 93.4608 13.6367 100.019 18.2319 106.692C24.9042 111.287 31.4627 116.039 38.1351 120.634C46.102 122.099 54.0974 123.38 62.0644 124.845C70.0313 123.38 78.0267 122.099 85.9937 120.634C92.666 116.039 99.2245 111.287 105.897 106.692C110.492 100.019 115.244 93.4608 119.839 86.7885C121.304 78.8215 122.585 70.8261 124.05 62.8591C122.585 54.8922 121.304 46.8968 119.839 38.9298C115.244 32.2575 110.492 25.699 105.897 19.0266C99.2245 14.4314 92.666 9.67969 85.9937 5.08446C78.041 3.60489 70.0456 2.32448 62.0786 0.859131C54.1117 2.32448 46.1162 3.60489 38.1493 5.07024C31.477 9.66546 24.9184 14.4172 18.2461 19.0124C13.6509 25.6847 8.89917 32.2432 4.30395 38.9156C2.82437 46.8825 1.54396 54.8922 0.0786133 62.8591ZM10.1369 84.3699C8.82804 77.2139 7.66145 70.0152 6.36682 62.8591C7.66145 55.6889 8.82804 48.5044 10.1369 41.3483C14.2769 35.3589 18.5307 29.4548 22.6849 23.4654C28.6743 19.3254 34.5784 15.0574 40.5678 10.9174C47.7239 9.60856 54.9226 8.44197 62.0786 7.14734C69.2489 8.44197 76.4334 9.60856 83.5894 10.9174C89.5788 15.0574 95.4829 19.3112 101.472 23.4654C105.612 29.4548 109.88 35.3589 114.02 41.3483C115.329 48.5044 116.496 55.7031 117.79 62.8591C116.482 70.0152 115.315 77.2139 114.006 84.3699C109.866 90.3594 105.612 96.2634 101.458 102.253C95.4687 106.393 89.5646 110.661 83.5752 114.801C76.4191 116.11 69.2204 117.276 62.0644 118.571C54.8941 117.276 47.7096 116.11 40.5536 114.801C34.5642 110.661 28.6601 106.407 22.6706 102.253C18.5449 96.2634 14.2769 90.3594 10.1369 84.3699Z" fill="white" fill-opacity="0.05"/>
<path d="M55.1501 62.8591C55.2782 63.7554 55.4062 64.6659 55.5485 65.5621C56.0891 66.2877 56.6297 67.0275 57.1846 67.7531C57.9101 68.2937 58.6357 68.8485 59.3755 69.3891C60.2718 69.5172 61.1823 69.6594 62.0786 69.7875C62.9748 69.6594 63.8853 69.5314 64.7816 69.3891C65.5072 68.8485 66.247 68.3079 66.9725 67.7531C67.5132 67.0275 68.068 66.3019 68.6086 65.5621C68.7367 64.6659 68.8789 63.7554 69.007 62.8591C68.8789 61.9628 68.7509 61.0523 68.6086 60.156C68.068 59.4304 67.5274 58.6906 66.9725 57.9651C66.247 57.4245 65.5214 56.8696 64.7816 56.329C63.8853 56.201 62.9748 56.0587 62.0786 55.9307C61.1823 56.0587 60.2718 56.1867 59.3755 56.329C58.6499 56.8696 57.9101 57.4102 57.1846 57.9651C56.644 58.6906 56.0891 59.4162 55.5485 60.156C55.4205 61.0523 55.2782 61.9486 55.1501 62.8591ZM60.912 63.3428C60.8835 63.1863 60.8693 63.0156 60.8408 62.8591C60.8693 62.7026 60.8835 62.5319 60.912 62.3754C61.0116 62.2473 61.1111 62.1193 61.2107 61.977C61.3388 61.8774 61.4668 61.7778 61.6091 61.6925C61.7656 61.664 61.9363 61.6498 62.0928 61.6213C62.2493 61.6498 62.42 61.664 62.5765 61.6925C62.7045 61.7921 62.8326 61.8917 62.9748 61.977C63.0744 62.1051 63.174 62.2331 63.2594 62.3754C63.2878 62.5319 63.3021 62.7026 63.3305 62.8591C63.3021 63.0156 63.2878 63.1863 63.2594 63.3428C63.1598 63.4708 63.0602 63.5989 62.9748 63.7411C62.8468 63.8407 62.7188 63.9403 62.5765 64.0399C62.42 64.0683 62.2493 64.0826 62.0928 64.111C61.9363 64.0826 61.7656 64.0683 61.6091 64.0399C61.481 63.9403 61.353 63.8407 61.2107 63.7411C61.0969 63.5989 61.0116 63.4708 60.912 63.3428Z" fill="white" fill-opacity="0.05"/>
<path d="M15.3012 62.8591C16.3824 68.877 17.3783 74.9091 18.4595 80.927C21.9593 85.949 25.516 90.9142 29.0015 95.9362C34.0235 99.4217 38.9886 102.993 44.0107 106.478C50.0286 107.559 56.0607 108.541 62.0786 109.637C68.0965 108.555 74.1286 107.559 80.1465 106.478C85.1685 102.978 90.1337 99.4217 95.1557 95.9362C98.6412 90.9142 102.212 85.949 105.698 80.927C106.779 74.9091 107.761 68.877 108.856 62.8591C107.775 56.8412 106.779 50.8091 105.698 44.7912C102.198 39.7692 98.6412 34.804 95.1557 29.782C90.1337 26.2965 85.1685 22.7256 80.1465 19.24C74.1286 18.1588 68.0965 17.1771 62.0786 16.0817C56.0607 17.1629 50.0286 18.1588 44.0107 19.24C38.9886 22.7398 34.0235 26.2965 29.0015 29.782C25.516 34.804 21.9451 39.7692 18.4595 44.7912C17.3783 50.8091 16.3966 56.8412 15.3012 62.8591ZM48.0368 68.6636C47.7381 66.7288 47.4535 64.7939 47.1832 62.8449C47.4535 60.91 47.7381 58.961 48.0368 57.0261C49.1892 55.447 50.3558 53.8678 51.5366 52.3029C53.1015 51.1221 54.6665 49.9555 56.2599 48.8031C58.1947 48.5044 60.1295 48.2198 62.0786 47.9495C64.0134 48.2198 65.9625 48.5044 67.8973 48.8031C69.4765 49.9555 71.0556 51.1221 72.6206 52.3029C73.8014 53.8678 74.968 55.4328 76.1203 57.0261C76.4191 58.961 76.7036 60.8958 76.9739 62.8449C76.7036 64.7797 76.4191 66.7288 76.1203 68.6636C74.968 70.2428 73.8014 71.8219 72.6206 73.3869C71.0556 74.5677 69.4907 75.7343 67.8973 76.8866C65.9625 77.1854 64.0276 77.4699 62.0786 77.7402C60.1438 77.4699 58.1947 77.1854 56.2599 76.8866C54.6807 75.7343 53.1015 74.5677 51.5366 73.3869C50.37 71.8219 49.2034 70.2428 48.0368 68.6636ZM33.6109 64.0399C33.5825 63.8407 33.5967 63.855 33.6252 64.0968C33.6679 64.3956 33.6679 64.3671 33.6109 64.0115C33.6109 64.0257 33.6109 64.0257 33.6109 64.0399ZM42.7872 83.815C42.6307 83.7012 42.6449 83.7012 42.8441 83.8577C43.0859 84.0427 43.0575 84.0284 42.7729 83.8008L42.7872 83.815ZM63.2594 91.3125C63.0602 91.341 63.0745 91.3267 63.3163 91.2983C63.6151 91.2556 63.5866 91.2556 63.2309 91.3125C63.2452 91.3125 63.2452 91.3125 63.2594 91.3125ZM83.0345 82.1505C82.9207 82.307 82.9207 82.2928 83.0772 82.0936C83.2622 81.8517 83.2479 81.8802 83.0203 82.1647L83.0345 82.1505ZM90.532 61.6783C90.5605 61.8775 90.5604 61.8632 90.5178 61.6214C90.4751 61.3226 90.4751 61.3511 90.532 61.7067C90.532 61.6925 90.532 61.6783 90.532 61.6783ZM81.37 41.9032C81.5265 42.017 81.5123 42.017 81.3131 41.8605C81.0712 41.6755 81.0997 41.6898 81.3842 41.9174C81.3842 41.9032 81.37 41.9032 81.37 41.9032ZM60.8978 34.3915C61.0969 34.363 61.0827 34.3772 60.8266 34.4057C60.5279 34.4484 60.5563 34.4484 60.912 34.3915H60.8978ZM41.1227 43.5677C41.2365 43.4112 41.2365 43.4254 41.08 43.6246C40.895 43.8664 40.9092 43.838 41.1369 43.5535C41.1227 43.5535 41.1227 43.5677 41.1227 43.5677ZM33.6109 61.7067C33.6536 61.3511 33.6679 61.3084 33.6252 61.6214C33.5967 61.8632 33.5967 61.8775 33.6109 61.6783C33.6109 61.6783 33.6109 61.6925 33.6109 61.7067ZM41.1369 82.1647C40.9092 81.8802 40.895 81.8517 41.08 82.0936C41.2365 82.2928 41.2365 82.307 41.1227 82.1505C41.1227 82.1505 41.1227 82.1647 41.1369 82.1647ZM60.9262 91.3125C60.5706 91.2698 60.5279 91.2556 60.8409 91.2983C61.0827 91.3267 61.0969 91.3267 60.912 91.3125C60.8978 91.3125 60.912 91.3125 60.9262 91.3125ZM81.3842 83.8008C81.0997 84.0284 81.0712 84.0427 81.3131 83.8577C81.5123 83.7012 81.5265 83.7012 81.37 83.815L81.3842 83.8008ZM90.532 64.0115C90.4893 64.3671 90.4751 64.4098 90.5178 64.0968C90.5462 63.855 90.5462 63.8407 90.532 64.0399C90.532 64.0257 90.532 64.0257 90.532 64.0115ZM83.0203 43.5535C83.2479 43.838 83.2622 43.8664 83.0772 43.6246C82.9207 43.4254 82.9207 43.4112 83.0345 43.5677L83.0203 43.5535ZM63.2309 34.3915C63.5866 34.4341 63.6293 34.4484 63.3163 34.4057C63.0745 34.3772 63.0602 34.3772 63.2594 34.3915C63.2452 34.3915 63.2452 34.3915 63.2309 34.3915ZM42.7729 41.9174C43.0575 41.6898 43.0859 41.6755 42.8441 41.8605C42.6449 42.017 42.6307 42.017 42.7872 41.9032C42.7872 41.9032 42.7729 41.9032 42.7729 41.9174ZM33.7532 62.8591C33.6821 63.044 33.6394 63.2432 33.6109 63.4566C33.5683 63.67 33.5825 63.8834 33.6252 64.0968C33.6252 64.2675 33.6679 64.424 33.739 64.5805C33.9097 64.9504 34.0235 65.235 34.3223 65.5195C34.9909 66.1739 35.8588 66.2308 36.7408 66.1597C38.946 65.9463 41.0231 65.1496 43.0859 64.4098C43.3278 66.1455 43.5839 67.8811 43.84 69.6168C38.5334 70.4277 30.5238 71.0964 29.7555 64.5378C29.6844 63.9403 29.6844 63.3855 29.7555 62.8733C29.6844 62.3612 29.6844 61.8063 29.7555 61.2088C30.5238 54.6503 38.5334 55.3189 43.84 56.1299C43.5696 57.8655 43.3278 59.6012 43.0859 61.3368C41.0088 60.597 38.946 59.8004 36.7408 59.587C35.8588 59.5016 34.9909 59.5727 34.3223 60.2272C34.0235 60.5117 33.9097 60.7962 33.739 61.1661C33.6679 61.3226 33.6252 61.4791 33.6252 61.6498C33.5825 61.8632 33.5683 62.0766 33.6109 62.29C33.6394 62.475 33.6821 62.6742 33.7532 62.8591ZM42.0474 42.8279C41.8624 42.9133 41.6917 43.0128 41.521 43.1551C41.3361 43.2689 41.1938 43.4254 41.08 43.6104C40.9662 43.7384 40.8666 43.8664 40.8239 44.0229C40.6958 44.4071 40.5678 44.6774 40.5678 45.1042C40.582 46.0289 41.1511 46.6976 41.834 47.2666C43.5412 48.6751 45.5756 49.5714 47.5531 50.5245C46.5003 51.9188 45.4476 53.3272 44.409 54.7356C40.0841 51.5631 33.9524 46.3703 38.0355 41.1776C38.4053 40.7081 38.8037 40.324 39.2163 40.011C39.5293 39.5984 39.9134 39.2001 40.3829 38.8302C45.5614 34.7329 50.7541 40.8788 53.9409 45.2038C52.5325 46.2423 51.124 47.2809 49.7298 48.3479C48.7908 46.3561 47.8946 44.3359 46.4719 42.6287C45.9028 41.9458 45.2342 41.3768 44.3094 41.3625C43.8969 41.3625 43.6123 41.4764 43.2282 41.6186C43.0717 41.6755 42.9294 41.7609 42.8156 41.8747C42.6307 41.9885 42.4884 42.1308 42.3604 42.3157C42.2323 42.4722 42.1327 42.6429 42.0474 42.8279ZM62.0786 34.5337C61.8936 34.4626 61.6945 34.4199 61.4811 34.3915C61.2677 34.3488 61.0543 34.363 60.8409 34.4057C60.6701 34.4057 60.5136 34.4484 60.3572 34.5195C59.9873 34.6902 59.7027 34.804 59.4182 35.1028C58.7638 35.7714 58.7069 36.6393 58.778 37.5213C58.9914 39.7265 59.7881 41.8036 60.5279 43.8664C58.7922 44.1083 57.0566 44.3644 55.3209 44.6205C54.51 39.3139 53.8413 31.3043 60.3998 30.536C60.9974 30.4649 61.5522 30.4649 62.0644 30.536C62.5765 30.4649 63.1314 30.4649 63.7289 30.536C70.2874 31.3043 69.6187 39.3139 68.8078 44.6205C67.0722 44.3502 65.3365 44.1083 63.6008 43.8664C64.3406 41.7893 65.1373 39.7265 65.3507 37.5213C65.4361 36.6393 65.365 35.7714 64.7105 35.1028C64.426 34.804 64.1415 34.6902 63.7716 34.5195C63.6151 34.4484 63.4586 34.4057 63.2879 34.4057C63.0745 34.363 62.8611 34.3488 62.6477 34.3915C62.4627 34.4199 62.2635 34.4626 62.0786 34.5337ZM82.1098 42.8279C82.0244 42.6429 81.9248 42.4722 81.7826 42.3015C81.6688 42.1166 81.5123 41.9743 81.3273 41.8605C81.1993 41.7467 81.0712 41.6471 80.9147 41.6044C80.5306 41.4764 80.2603 41.3483 79.8335 41.3483C78.9088 41.3625 78.2401 41.9316 77.6711 42.6145C76.2626 44.3217 75.3663 46.3561 74.4131 48.3336C73.0189 47.2809 71.6105 46.2281 70.202 45.1895C73.3746 40.8646 78.5673 34.7329 83.7601 38.816C84.2296 39.1859 84.6137 39.5842 84.9267 39.9968C85.3392 40.3098 85.7376 40.6939 86.1075 41.1634C90.2048 46.3419 84.0589 51.5346 79.7339 54.7214C78.6954 53.313 77.6426 51.9045 76.5898 50.5103C78.5816 49.5714 80.6018 48.6751 82.309 47.2524C82.9918 46.6833 83.5609 46.0289 83.5751 45.0899C83.5751 44.6774 83.4613 44.3928 83.3191 44.0087C83.2621 43.8522 83.1768 43.71 83.063 43.5961C82.9492 43.4112 82.7927 43.2689 82.6219 43.1409C82.4512 43.0128 82.2947 42.9133 82.1098 42.8279ZM90.404 62.8591C90.4751 62.6742 90.5178 62.475 90.5462 62.2616C90.5889 62.0482 90.5747 61.8348 90.532 61.6214C90.532 61.4506 90.4893 61.2942 90.4182 61.1377C90.2475 60.7678 90.1337 60.4832 89.8349 60.1987C89.1662 59.5443 88.2984 59.4874 87.4164 59.5585C85.2112 59.7719 83.1341 60.5686 81.0712 61.3084C80.8294 59.5727 80.5733 57.8371 80.3172 56.1014C85.6238 55.2905 93.6334 54.6218 94.4017 61.1803C94.4728 61.7779 94.4728 62.3327 94.4017 62.8449C94.4728 63.357 94.4728 63.9119 94.4017 64.5094C93.6334 71.0679 85.6238 70.3993 80.3172 69.5883C80.5875 67.8527 80.8294 66.117 81.0712 64.3814C83.1483 65.1211 85.2112 65.9178 87.4164 66.1312C88.2984 66.2166 89.1662 66.1455 89.8349 65.491C90.1337 65.2065 90.2475 64.922 90.4182 64.5521C90.4893 64.3956 90.532 64.2391 90.532 64.0684C90.5747 63.855 90.5889 63.6416 90.5462 63.4282C90.5178 63.2432 90.4751 63.044 90.404 62.8591ZM82.1098 82.8903C82.2947 82.8049 82.4655 82.7054 82.6362 82.5631C82.8211 82.4493 82.9634 82.2928 83.0772 82.1078C83.191 81.9798 83.2906 81.8517 83.3333 81.6953C83.4613 81.3111 83.5894 81.0408 83.5894 80.614C83.5751 79.6893 83.0061 79.0206 82.3232 78.4516C80.616 77.0431 78.5816 76.1468 76.6041 75.1936C77.6568 73.7994 78.7096 72.391 79.7482 70.9825C84.0731 74.1551 90.2048 79.3478 86.1217 84.5406C85.7518 85.0101 85.3535 85.3942 84.9409 85.7072C84.6279 86.1198 84.2438 86.5181 83.7743 86.888C78.5958 90.9853 73.403 84.8394 70.2163 80.5144C71.6247 79.4759 73.0331 78.4373 74.4274 77.3703C75.3663 79.3621 76.2626 81.3823 77.6853 83.0895C78.2543 83.7724 78.923 84.3414 79.8477 84.3556C80.2603 84.3556 80.5449 84.2418 80.929 84.0996C81.0855 84.0427 81.2277 83.9573 81.3415 83.8435C81.5265 83.7297 81.6688 83.5732 81.7968 83.4025C81.9106 83.2317 82.0244 83.0752 82.1098 82.8903ZM62.0786 91.1845C62.2635 91.2556 62.4627 91.2983 62.6761 91.3267C62.8895 91.3694 63.1029 91.3552 63.3163 91.3125C63.487 91.3125 63.6435 91.2698 63.8 91.1987C64.1699 91.028 64.4544 90.9142 64.739 90.6154C65.3934 89.9467 65.4503 89.0789 65.3792 88.1969C65.1658 85.9917 64.3691 83.9146 63.6293 81.8517C65.365 81.6099 67.1006 81.3538 68.8363 81.0977C69.6472 86.4043 70.3158 94.4139 63.7573 95.1822C63.1598 95.2533 62.605 95.2533 62.0928 95.1822C61.5807 95.2533 61.0258 95.2533 60.4283 95.1822C53.8698 94.4139 54.5384 86.4043 55.3494 81.0977C57.085 81.368 58.8207 81.6099 60.5563 81.8517C59.8165 83.9288 59.0198 85.9917 58.8064 88.1969C58.7211 89.0789 58.7922 89.9467 59.4466 90.6154C59.7312 90.9142 60.0157 91.028 60.3856 91.1987C60.5421 91.2698 60.6986 91.3125 60.8693 91.3125C61.0827 91.3552 61.2961 91.3694 61.5095 91.3267C61.6945 91.2983 61.8936 91.2556 62.0786 91.1845ZM42.0474 82.8903C42.1327 83.0752 42.2323 83.246 42.3746 83.4167C42.4884 83.6016 42.6449 83.7439 42.8299 83.8577C42.9579 83.9715 43.0859 84.0711 43.2424 84.1138C43.6265 84.2418 43.8969 84.3699 44.3237 84.3699C45.2484 84.3557 45.917 83.7866 46.4861 83.1037C47.8946 81.3965 48.7908 79.3621 49.744 77.3846C51.1382 78.4373 52.5467 79.4901 53.9551 80.5287C50.7826 84.8536 45.5898 90.9853 40.3971 86.9022C39.9276 86.5323 39.5435 86.134 39.2305 85.7214C38.8179 85.4084 38.4196 85.0243 38.0497 84.5548C33.9524 79.3763 40.0983 74.1836 44.4232 70.9968C45.4618 72.4052 46.5146 73.8137 47.5673 75.2079C45.5756 76.1468 43.5554 77.0431 41.8482 78.4658C41.1653 79.0349 40.5963 79.7035 40.582 80.6283C40.582 81.0408 40.6958 81.3254 40.8381 81.7095C40.895 81.866 40.9804 82.0082 41.0942 82.1221C41.208 82.307 41.3645 82.4493 41.5352 82.5773C41.6917 82.6911 41.8624 82.8049 42.0474 82.8903ZM24.5059 62.8591C24.4063 63.7127 24.4347 64.6374 24.5912 65.6475C25.6013 71.765 30.8794 73.4011 36.4563 73.4722C32.5582 77.4699 29.9831 82.3497 33.5967 87.4002C34.1942 88.2253 34.8344 88.894 35.5031 89.4346C36.0295 90.1032 36.7124 90.7434 37.5375 91.341C42.588 94.9545 47.4678 92.3795 51.4655 88.4814C51.5366 94.0583 53.1727 99.3364 59.2901 100.346C60.3002 100.517 61.225 100.531 62.0786 100.432C62.9322 100.531 63.8569 100.503 64.867 100.346C70.9845 99.3364 72.6206 94.0583 72.6917 88.4814C76.6894 92.3795 81.5692 94.9545 86.6197 91.341C87.4448 90.7434 88.1135 90.1032 88.6541 89.4346C89.3227 88.9082 89.9629 88.2253 90.5604 87.4002C94.174 82.3497 91.599 77.4699 87.7009 73.4722C93.2778 73.4011 98.5559 71.765 99.566 65.6475C99.7367 64.6374 99.7509 63.7127 99.6513 62.8591C99.7509 62.0055 99.7225 61.0808 99.566 60.0707C98.5559 53.9532 93.2778 52.3171 87.7009 52.246C91.599 48.2483 94.174 43.3685 90.5604 38.318C89.9629 37.4929 89.3227 36.8242 88.6541 36.2836C88.1277 35.615 87.4448 34.9748 86.6197 34.3772C81.5692 30.7636 76.6894 33.3387 72.6917 37.2368C72.6206 31.6599 70.9845 26.3818 64.867 25.3717C63.8569 25.201 62.9322 25.1868 62.0786 25.2864C61.225 25.1868 60.3002 25.2152 59.2901 25.3717C53.1727 26.3818 51.5366 31.6599 51.4655 37.2368C47.4678 33.3387 42.588 30.7636 37.5375 34.3772C36.7124 34.9748 36.0437 35.615 35.5031 36.2836C34.8344 36.81 34.1942 37.4929 33.5967 38.318C29.9831 43.3685 32.5582 48.2483 36.4563 52.246C30.8794 52.3171 25.6013 53.9532 24.5912 60.0707C24.4347 61.0808 24.4063 62.0055 24.5059 62.8591ZM22.1158 79.4048C21.1341 73.899 20.2236 68.3648 19.242 62.8591C20.2236 57.3391 21.1341 51.8192 22.1158 46.3134C25.3168 41.7182 28.5747 37.1657 31.7757 32.5704C36.3709 29.3694 40.9235 26.1115 45.5187 22.9105C51.0244 21.9289 56.5586 21.0184 62.0644 20.0367C67.5843 21.0184 73.1043 21.9289 78.61 22.9105C83.2052 26.1115 87.7578 29.3694 92.353 32.5704C95.554 37.1657 98.8119 41.7182 102.013 46.3134C102.995 51.8192 103.905 57.3534 104.887 62.8591C103.905 68.3648 102.995 73.899 102.013 79.4048C98.8119 84 95.554 88.5525 92.353 93.1478C87.7578 96.3488 83.2052 99.6067 78.61 102.808C73.1043 103.789 67.5701 104.7 62.0644 105.681C56.5444 104.7 51.0244 103.789 45.5187 102.808C40.9235 99.6067 36.3709 96.3488 31.7757 93.1478C28.5889 88.5525 25.3168 84 22.1158 79.4048Z" fill="white" fill-opacity="0.05"/>
</g>
<defs>
<clipPath id="clip0">
<rect width="124" height="124" fill="white" transform="translate(0.0786133 0.859131)"/>
</clipPath>
</defs>
</svg>
