<svg width="41" height="45" viewBox="0 0 41 45" fill="none" xmlns="http://www.w3.org/2000/svg">
<g clip-path="url(#clip0)">
<path d="M-40.291 41.6366C-39.3338 46.9051 -38.4974 52.1924 -37.5402 57.4608C-34.5385 61.8732 -31.4345 66.2103 -28.4328 70.6226C-24.0743 73.6614 -19.7901 76.8037 -15.4316 79.8424C-10.2273 80.8115 -5.00453 81.6582 0.199688 82.6272C5.40391 81.6582 10.6267 80.8115 15.8309 79.8424C20.1895 76.8037 24.4737 73.6614 28.8322 70.6226C31.8339 66.2103 34.9379 61.8732 37.9396 57.4608C38.8968 52.1924 39.7332 46.9051 40.6904 41.6366C39.7332 36.3681 38.8968 31.0809 37.9396 25.8124C34.9379 21.4 31.8339 17.063 28.8322 12.6506C24.4737 9.61183 20.1895 6.46956 15.8309 3.43078C10.636 2.45235 5.41321 1.60563 0.208984 0.636612C-4.99524 1.60563 -10.218 2.45235 -15.4223 3.42138C-19.7808 6.46015 -24.065 9.60242 -28.4235 12.6412C-31.4253 17.0535 -34.5292 21.3906 -37.5309 25.803C-38.4974 31.0714 -39.3338 36.3681 -40.291 41.6366ZM-33.7207 55.8615C-34.5757 51.1293 -35.3377 46.3688 -36.1834 41.6366C-35.3377 36.895 -34.5757 32.144 -33.7207 27.4117C-31.0163 23.451 -28.2377 19.5467 -25.524 15.5859C-21.6116 12.8482 -17.7549 10.0258 -13.8424 7.28806C-9.16791 6.42252 -4.46552 5.65107 0.208984 4.79494C4.89278 5.65107 9.58588 6.42252 14.2604 7.28806C18.1728 10.0258 22.0295 12.8388 25.942 15.5859C28.6463 19.5467 31.4343 23.451 34.1386 27.4117C34.9936 32.144 35.7557 36.9044 36.6014 41.6366C35.7464 46.3688 34.9843 51.1293 34.1294 55.8615C31.425 59.8222 28.6463 63.7266 25.9327 67.6873C22.0203 70.425 18.1635 73.2474 14.2511 75.9852C9.57658 76.8507 4.8742 77.6221 0.199688 78.4783C-4.48411 77.6221 -9.1772 76.8507 -13.8517 75.9852C-17.7642 73.2474 -21.6209 70.4344 -25.5333 67.6873C-28.2284 63.7266 -31.0163 59.8222 -33.7207 55.8615Z" fill="white" fill-opacity="0.03"/>
<path d="M-4.31683 41.6366C-4.23319 42.2293 -4.14955 42.8314 -4.05662 43.4241C-3.70348 43.9039 -3.35033 44.3931 -2.9879 44.8729C-2.51394 45.2304 -2.03998 45.5973 -1.55674 45.9548C-0.971261 46.0395 -0.376491 46.1336 0.208984 46.2183C0.794459 46.1336 1.38923 46.0489 1.9747 45.9548C2.44866 45.5973 2.93191 45.2398 3.40586 44.8729C3.75901 44.3931 4.12144 43.9133 4.47459 43.4241C4.55822 42.8314 4.65116 42.2293 4.7348 41.6366C4.65116 41.0439 4.56752 40.4418 4.47459 39.8491C4.12144 39.3693 3.7683 38.88 3.40586 38.4002C2.93191 38.0427 2.45795 37.6758 1.9747 37.3183C1.38923 37.2336 0.794459 37.1396 0.208984 37.0549C-0.376491 37.1396 -0.971261 37.2242 -1.55674 37.3183C-2.03069 37.6758 -2.51394 38.0333 -2.9879 38.4002C-3.34104 38.88 -3.70348 39.3598 -4.05662 39.8491C-4.14026 40.4418 -4.23319 41.0345 -4.31683 41.6366ZM-0.553066 41.9564C-0.571652 41.853 -0.580945 41.7401 -0.599531 41.6366C-0.580945 41.5331 -0.571652 41.4202 -0.553066 41.3167C-0.488013 41.232 -0.422958 41.1474 -0.357905 41.0533C-0.274265 40.9874 -0.190627 40.9216 -0.0976949 40.8651C0.00453091 40.8463 0.11605 40.8369 0.218276 40.8181C0.320502 40.8369 0.432021 40.8463 0.534247 40.8651C0.617886 40.931 0.701524 40.9968 0.794457 41.0533C0.859509 41.138 0.924563 41.2226 0.980323 41.3167C0.998909 41.4202 1.0082 41.5331 1.02679 41.6366C1.0082 41.7401 0.998909 41.853 0.980323 41.9564C0.91527 42.0411 0.850216 42.1258 0.794457 42.2199C0.710817 42.2857 0.62718 42.3516 0.534247 42.4174C0.432021 42.4363 0.320502 42.4457 0.218276 42.4645C0.11605 42.4457 0.00453091 42.4363 -0.0976949 42.4174C-0.181334 42.3516 -0.264972 42.2857 -0.357905 42.2199C-0.432251 42.1258 -0.488013 42.0411 -0.553066 41.9564Z" fill="white" fill-opacity="0.03"/>
<path d="M-30.3473 41.6366C-29.641 45.6161 -28.9905 49.6051 -28.2842 53.5847C-25.998 56.9057 -23.6747 60.1891 -21.3979 63.5101C-18.1174 65.8151 -14.874 68.1765 -11.5935 70.4814C-7.66246 71.1964 -3.72212 71.8456 0.208923 72.57C4.13997 71.855 8.08031 71.1964 12.0114 70.4814C15.2919 68.1671 18.5352 65.8151 21.8157 63.5101C24.0926 60.1891 26.4252 56.9057 28.702 53.5847C29.4083 49.6051 30.0496 45.6161 30.7651 41.6366C30.0589 37.657 29.4083 33.668 28.702 29.6884C26.4159 26.3674 24.0926 23.084 21.8157 19.763C18.5352 17.458 15.2919 15.0966 12.0114 12.7917C8.08031 12.0767 4.13997 11.4275 0.208923 10.7031C-3.72212 11.4181 -7.66246 12.0767 -11.5935 12.7917C-14.874 15.106 -18.1174 17.458 -21.3979 19.763C-23.6747 23.084 -26.0073 26.3674 -28.2842 29.6884C-28.9905 33.668 -29.6317 37.657 -30.3473 41.6366ZM-8.96352 45.475C-9.15868 44.1955 -9.34454 42.916 -9.52111 41.6271C-9.34454 40.3477 -9.15868 39.0588 -8.96352 37.7793C-8.21076 36.735 -7.44872 35.6907 -6.67738 34.6558C-5.65512 33.875 -4.63286 33.1035 -3.59202 32.3415C-2.32813 32.1439 -1.06425 31.9557 0.208923 31.777C1.47281 31.9557 2.74598 32.1439 4.00986 32.3415C5.04141 33.1035 6.07297 33.875 7.09522 34.6558C7.86657 35.6907 8.62861 36.7256 9.38136 37.7793C9.57652 39.0588 9.76239 40.3383 9.93896 41.6271C9.76239 42.9066 9.57652 44.1955 9.38136 45.475C8.62861 46.5193 7.86657 47.5636 7.09522 48.5985C6.07297 49.3793 5.0507 50.1508 4.00986 50.9128C2.74598 51.1104 1.4821 51.2986 0.208923 51.4773C-1.05496 51.2986 -2.32813 51.1104 -3.59202 50.9128C-4.62357 50.1508 -5.65512 49.3793 -6.67738 48.5985C-7.43943 47.5636 -8.20147 46.5193 -8.96352 45.475ZM-18.3869 42.4174C-18.4055 42.2857 -18.3962 42.2951 -18.3776 42.4551C-18.3497 42.6526 -18.3497 42.6338 -18.3869 42.3986C-18.3869 42.408 -18.3869 42.408 -18.3869 42.4174ZM-12.3927 55.4945C-12.495 55.4193 -12.4857 55.4193 -12.3556 55.5227C-12.1976 55.645 -12.2162 55.6356 -12.402 55.4851L-12.3927 55.4945ZM0.980263 60.4525C0.850157 60.4713 0.859451 60.4619 1.01744 60.4431C1.21259 60.4149 1.19401 60.4149 0.961676 60.4525C0.970968 60.4525 0.970968 60.4525 0.980263 60.4525ZM13.8979 54.3938C13.8235 54.4973 13.8235 54.4879 13.9258 54.3562C14.0466 54.1962 14.0373 54.215 13.8886 54.4032L13.8979 54.3938ZM18.7954 40.8557C18.814 40.9874 18.814 40.978 18.7861 40.8181C18.7583 40.6205 18.7583 40.6393 18.7954 40.8745C18.7954 40.8651 18.7954 40.8557 18.7954 40.8557ZM12.8106 27.7786C12.9128 27.8539 12.9035 27.8539 12.7734 27.7504C12.6154 27.6281 12.634 27.6375 12.8199 27.788C12.8199 27.7786 12.8106 27.7786 12.8106 27.7786ZM-0.562418 22.8112C-0.432312 22.7924 -0.441605 22.8018 -0.608883 22.8206C-0.804041 22.8488 -0.785458 22.8488 -0.553125 22.8112H-0.562418ZM-13.48 28.8793C-13.4057 28.7758 -13.4057 28.7853 -13.5079 28.917C-13.6287 29.0769 -13.6194 29.0581 -13.4707 28.8699C-13.48 28.8699 -13.48 28.8793 -13.48 28.8793ZM-18.3869 40.8745C-18.359 40.6393 -18.3497 40.6111 -18.3776 40.8181C-18.3962 40.978 -18.3962 40.9874 -18.3869 40.8557C-18.3869 40.8557 -18.3869 40.8651 -18.3869 40.8745ZM-13.4707 54.4032C-13.6194 54.215 -13.6287 54.1962 -13.5079 54.3562C-13.4057 54.4879 -13.4057 54.4973 -13.48 54.3938C-13.48 54.3938 -13.48 54.4032 -13.4707 54.4032ZM-0.543831 60.4525C-0.776161 60.4243 -0.804043 60.4149 -0.59959 60.4431C-0.441607 60.4619 -0.432314 60.4619 -0.553125 60.4525C-0.562418 60.4525 -0.553123 60.4525 -0.543831 60.4525ZM12.8199 55.4851C12.634 55.6356 12.6154 55.645 12.7734 55.5227C12.9035 55.4193 12.9128 55.4193 12.8106 55.4945L12.8199 55.4851ZM18.7954 42.3986C18.7675 42.6338 18.7583 42.662 18.7861 42.4551C18.8047 42.2951 18.8047 42.2857 18.7954 42.4174C18.7954 42.408 18.7954 42.408 18.7954 42.3986ZM13.8886 28.8699C14.0373 29.0581 14.0466 29.0769 13.9258 28.917C13.8235 28.7853 13.8235 28.7758 13.8979 28.8793L13.8886 28.8699ZM0.961676 22.8112C1.19401 22.8394 1.22189 22.8488 1.01744 22.8206C0.859451 22.8018 0.850157 22.8018 0.980263 22.8112C0.970968 22.8112 0.970968 22.8112 0.961676 22.8112ZM-12.402 27.788C-12.2162 27.6375 -12.1976 27.6281 -12.3556 27.7504C-12.4857 27.8539 -12.495 27.8539 -12.3927 27.7786C-12.3927 27.7786 -12.402 27.7786 -12.402 27.788ZM-18.2939 41.6366C-18.3404 41.7589 -18.3683 41.8906 -18.3869 42.0317C-18.4148 42.1728 -18.4055 42.3139 -18.3776 42.4551C-18.3776 42.5679 -18.3497 42.6714 -18.3032 42.7749C-18.1917 43.0195 -18.1174 43.2077 -17.9222 43.3959C-17.4854 43.8286 -16.9185 43.8663 -16.3424 43.8192C-14.9019 43.6781 -13.5451 43.1512 -12.1976 42.662C-12.0396 43.8098 -11.8723 44.9576 -11.705 46.1054C-15.1714 46.6416 -20.4035 47.0838 -20.9053 42.7467C-20.9518 42.3516 -20.9518 41.9847 -20.9053 41.646C-20.9518 41.3073 -20.9518 40.9404 -20.9053 40.5452C-20.4035 36.2082 -15.1714 36.6503 -11.705 37.1866C-11.8816 38.3344 -12.0396 39.4821 -12.1976 40.6299C-13.5544 40.1407 -14.9019 39.6138 -16.3424 39.4727C-16.9185 39.4163 -17.4854 39.4633 -17.9222 39.8961C-18.1174 40.0842 -18.1917 40.2724 -18.3032 40.517C-18.3497 40.6205 -18.3776 40.724 -18.3776 40.8369C-18.4055 40.978 -18.4148 41.1191 -18.3869 41.2602C-18.3683 41.3825 -18.3404 41.5143 -18.2939 41.6366ZM-12.876 28.3901C-12.9968 28.4466 -13.1083 28.5124 -13.2198 28.6065C-13.3406 28.6818 -13.4336 28.7853 -13.5079 28.9076C-13.5823 28.9922 -13.6473 29.0769 -13.6752 29.1804C-13.7588 29.4344 -13.8425 29.6132 -13.8425 29.8954C-13.8332 30.5069 -13.4614 30.9491 -13.0154 31.3254C-11.9002 32.2568 -10.5713 32.8495 -9.27949 33.4798C-9.96719 34.4018 -10.6549 35.3332 -11.3333 36.2646C-14.1584 34.1666 -18.1638 30.7327 -15.4967 27.2988C-15.255 26.9883 -14.9948 26.7343 -14.7253 26.5273C-14.5209 26.2545 -14.27 25.9911 -13.9633 25.7465C-10.5805 23.037 -7.18851 27.1012 -5.10682 29.9613C-6.02685 30.648 -6.94688 31.3348 -7.85762 32.0404C-8.47097 30.7233 -9.05645 29.3874 -9.98577 28.2584C-10.3575 27.8068 -10.7943 27.4305 -11.3983 27.4211C-11.6679 27.4211 -11.8537 27.4964 -12.1046 27.5904C-12.2069 27.6281 -12.2998 27.6845 -12.3741 27.7598C-12.495 27.835 -12.5879 27.9291 -12.6715 28.0514C-12.7552 28.1549 -12.8202 28.2678 -12.876 28.3901ZM0.208923 22.9053C0.0881119 22.8582 -0.041996 22.83 -0.181395 22.8112C-0.320793 22.783 -0.460192 22.7924 -0.59959 22.8206C-0.711111 22.8206 -0.813335 22.8488 -0.915562 22.8959C-1.15719 23.0088 -1.34305 23.084 -1.52892 23.2816C-1.95641 23.7238 -1.99358 24.2976 -1.94711 24.8809C-1.80771 26.3392 -1.28729 27.7127 -0.804041 29.0769C-1.93782 29.2368 -3.07159 29.4062 -4.20537 29.5755C-4.73509 26.0663 -5.17187 20.7697 -0.88768 20.2616C-0.497364 20.2146 -0.134928 20.2146 0.199629 20.2616C0.534185 20.2146 0.896626 20.2146 1.28694 20.2616C5.57113 20.7697 5.13435 26.0663 4.60463 29.5755C3.47086 29.3968 2.33708 29.2368 1.2033 29.0769C1.68655 27.7033 2.20697 26.3392 2.34637 24.8809C2.40213 24.2976 2.35566 23.7238 1.92817 23.2816C1.74231 23.084 1.55644 23.0088 1.31482 22.8959C1.21259 22.8488 1.11037 22.8206 0.99885 22.8206C0.859451 22.7924 0.720051 22.783 0.580652 22.8112C0.459841 22.83 0.329737 22.8582 0.208923 22.9053ZM13.2938 28.3901C13.2381 28.2678 13.173 28.1549 13.0801 28.042C13.0057 27.9197 12.9035 27.8256 12.7827 27.7504C12.6991 27.6751 12.6154 27.6093 12.5132 27.581C12.2623 27.4964 12.0857 27.4117 11.8069 27.4117C11.2028 27.4211 10.7661 27.7974 10.3943 28.249C9.4743 29.378 8.88882 30.7233 8.26617 32.031C7.35543 31.3348 6.4354 30.6386 5.51537 29.9518C7.58776 27.0918 10.9798 23.037 14.3718 25.7371C14.6785 25.9817 14.9294 26.2451 15.1339 26.5179C15.4034 26.7249 15.6636 26.9789 15.9052 27.2894C18.5817 30.7139 14.567 34.1478 11.7419 36.2552C11.0634 35.3238 10.3757 34.3924 9.68804 33.4704C10.9891 32.8495 12.3087 32.2568 13.4239 31.316C13.87 30.9397 14.2417 30.5069 14.251 29.886C14.251 29.6132 14.1767 29.425 14.0837 29.171C14.0466 29.0675 13.9908 28.9734 13.9165 28.8981C13.8421 28.7758 13.7399 28.6818 13.6284 28.5971C13.5169 28.5124 13.4146 28.4466 13.2938 28.3901ZM18.7118 41.6366C18.7583 41.5143 18.7861 41.3825 18.8047 41.2414C18.8326 41.1003 18.8233 40.9592 18.7954 40.8181C18.7954 40.7052 18.7675 40.6017 18.7211 40.4982C18.6096 40.2536 18.5352 40.0654 18.3401 39.8773C17.9033 39.4445 17.3364 39.4069 16.7602 39.4539C15.3198 39.595 13.9629 40.1219 12.6154 40.6111C12.4574 39.4633 12.2902 38.3155 12.1229 37.1678C15.5893 36.6315 20.8214 36.1893 21.3232 40.5264C21.3697 40.9216 21.3697 41.2885 21.3232 41.6271C21.3697 41.9658 21.3697 42.3328 21.3232 42.7279C20.8214 47.065 15.5893 46.6228 12.1229 46.0865C12.2994 44.9388 12.4574 43.791 12.6154 42.6432C13.9722 43.1324 15.3198 43.6593 16.7602 43.8004C17.3364 43.8568 17.9033 43.8098 18.3401 43.377C18.5352 43.1889 18.6096 43.0007 18.7211 42.7561C18.7675 42.6526 18.7954 42.5491 18.7954 42.4362C18.8233 42.2951 18.8326 42.154 18.8047 42.0129C18.7861 41.8906 18.7583 41.7589 18.7118 41.6366ZM13.2938 54.883C13.4146 54.8265 13.5262 54.7607 13.6377 54.6666C13.7585 54.5914 13.8514 54.4879 13.9258 54.3656C14.0001 54.2809 14.0652 54.1962 14.093 54.0927C14.1767 53.8387 14.2603 53.66 14.2603 53.3777C14.251 52.7662 13.8793 52.324 13.4332 51.9477C12.318 51.0163 10.9891 50.4236 9.69733 49.7933C10.385 48.8713 11.0727 47.9399 11.7511 47.0085C14.5763 49.1065 18.5817 52.5404 15.9145 55.9743C15.6729 56.2848 15.4127 56.5388 15.1432 56.7458C14.9387 57.0186 14.6878 57.282 14.3811 57.5266C10.9984 60.2361 7.60635 56.1719 5.52466 53.3119C6.44469 52.6251 7.36473 51.9383 8.27546 51.2327C8.88882 52.5498 9.47429 53.8858 10.4036 55.0147C10.7753 55.4663 11.2121 55.8426 11.8162 55.852C12.0857 55.852 12.2716 55.7768 12.5225 55.6827C12.6247 55.645 12.7176 55.5886 12.792 55.5133C12.9128 55.4381 13.0057 55.3346 13.0894 55.2217C13.1637 55.1088 13.2381 55.0053 13.2938 54.883ZM0.208923 60.3679C0.329737 60.4149 0.459841 60.4431 0.599239 60.4619C0.738638 60.4902 0.878036 60.4808 1.01744 60.4525C1.12896 60.4525 1.23118 60.4243 1.33341 60.3773C1.57503 60.2644 1.76089 60.1891 1.94676 59.9915C2.37425 59.5494 2.41143 58.9755 2.36496 58.3922C2.22556 56.9339 1.70514 55.5604 1.22189 54.1962C2.35566 54.0363 3.48944 53.8669 4.62322 53.6976C5.15294 57.2068 5.58971 62.5035 1.30552 63.0115C0.915209 63.0585 0.552773 63.0585 0.218216 63.0115C-0.116341 63.0585 -0.478781 63.0585 -0.869097 63.0115C-5.15329 62.5035 -4.7165 57.2068 -4.18679 53.6976C-3.05301 53.8763 -1.91923 54.0363 -0.785458 54.1962C-1.26871 55.5698 -1.78913 56.9339 -1.92853 58.3922C-1.98429 58.9755 -1.93782 59.5494 -1.51033 59.9915C-1.32446 60.1891 -1.1386 60.2644 -0.896975 60.3773C-0.794748 60.4243 -0.692524 60.4525 -0.581005 60.4525C-0.441605 60.4808 -0.302206 60.4902 -0.162807 60.4619C-0.0419941 60.4431 0.0881119 60.4149 0.208923 60.3679ZM-12.876 54.883C-12.8202 55.0053 -12.7552 55.1182 -12.6622 55.2311C-12.5879 55.3534 -12.4857 55.4475 -12.3648 55.5227C-12.2812 55.598 -12.1976 55.6639 -12.0953 55.6921C-11.8444 55.7768 -11.6679 55.8614 -11.3891 55.8614C-10.785 55.852 -10.3482 55.4757 -9.97648 55.0241C-9.05645 53.8952 -8.47098 52.5498 -7.84833 51.2421C-6.93759 51.9383 -6.01756 52.6345 -5.09752 53.3213C-7.16992 56.1813 -10.562 60.2361 -13.954 57.536C-14.2607 57.2914 -14.5116 57.028 -14.716 56.7552C-14.9855 56.5482 -15.2458 56.2942 -15.4874 55.9837C-18.1638 52.5592 -14.1492 49.1253 -11.324 47.0179C-10.6456 47.9493 -9.9579 48.8807 -9.27019 49.8027C-10.5712 50.4236 -11.8909 51.0163 -13.0061 51.9571C-13.4522 52.3334 -13.8239 52.7756 -13.8332 53.3871C-13.8332 53.66 -13.7588 53.8481 -13.6659 54.1021C-13.6287 54.2056 -13.573 54.2997 -13.4986 54.375C-13.4243 54.4973 -13.3221 54.5914 -13.2105 54.676C-13.1083 54.7513 -12.9968 54.8265 -12.876 54.883ZM-24.3346 41.6366C-24.3996 42.201 -24.381 42.8126 -24.2788 43.4805C-23.619 47.526 -20.1712 48.6079 -16.5282 48.6549C-19.0746 51.2986 -20.7567 54.5255 -18.3962 57.8653C-18.0059 58.411 -17.5877 58.8532 -17.1509 59.2107C-16.807 59.6528 -16.3609 60.0762 -15.8219 60.4713C-12.5228 62.861 -9.33525 61.1581 -6.72384 58.5803C-6.67738 62.2683 -5.60865 65.7586 -1.61256 66.4266C-0.952736 66.5395 -0.348671 66.5489 0.208923 66.483C0.76652 66.5489 1.37058 66.5301 2.0304 66.4266C6.0265 65.7586 7.09522 62.2683 7.14169 58.5803C9.75309 61.1581 12.9407 62.861 16.2398 60.4713C16.7788 60.0762 17.2156 59.6528 17.5687 59.2107C18.0055 58.8626 18.4237 58.411 18.814 57.8653C21.1745 54.5255 19.4924 51.2986 16.9461 48.6549C20.589 48.6079 24.0368 47.526 24.6966 43.4805C24.8082 42.8126 24.8175 42.201 24.7524 41.6366C24.8175 41.0721 24.7989 40.4606 24.6966 39.7926C24.0368 35.7472 20.589 34.6652 16.9461 34.6182C19.4924 31.9746 21.1745 28.7476 18.814 25.4078C18.4237 24.8621 18.0055 24.4199 17.5687 24.0624C17.2249 23.6203 16.7788 23.1969 16.2398 22.8018C12.9407 20.4121 9.75309 22.115 7.14169 24.6928C7.09522 21.0049 6.0265 17.5145 2.0304 16.8465C1.37058 16.7336 0.76652 16.7242 0.208923 16.7901C-0.348671 16.7242 -0.952736 16.743 -1.61256 16.8465C-5.60865 17.5145 -6.67738 21.0049 -6.72384 24.6928C-9.33525 22.115 -12.5228 20.4121 -15.8219 22.8018C-16.3609 23.1969 -16.7977 23.6203 -17.1509 24.0624C-17.5877 24.4105 -18.0059 24.8621 -18.3962 25.4078C-20.7567 28.7476 -19.0746 31.9746 -16.5282 34.6182C-20.1712 34.6652 -23.619 35.7472 -24.2788 39.7926C-24.381 40.4606 -24.3996 41.0721 -24.3346 41.6366ZM-25.8958 52.578C-26.5371 48.9372 -27.1318 45.2775 -27.7731 41.6366C-27.1318 37.9863 -26.5371 34.336 -25.8958 30.6951C-23.8048 27.6563 -21.6767 24.6457 -19.5857 21.607C-16.584 19.4902 -13.6101 17.3357 -10.6084 15.2189C-7.01193 14.5698 -3.39686 13.9677 0.199629 13.3185C3.80541 13.9677 7.41119 14.5698 11.0077 15.2189C14.0094 17.3357 16.9832 19.4902 19.985 21.607C22.0759 24.6457 24.2041 27.6563 26.2951 30.6951C26.9363 34.336 27.5311 37.9957 28.1723 41.6366C27.5311 45.2775 26.9363 48.9372 26.2951 52.578C24.2041 55.6168 22.0759 58.6274 19.985 61.6662C16.9832 63.783 14.0094 65.9374 11.0077 68.0542C7.41119 68.7033 3.79612 69.3054 0.199629 69.9546C-3.40615 69.3054 -7.01193 68.7033 -10.6084 68.0542C-13.6101 65.9374 -16.584 63.783 -19.5857 61.6662C-21.6674 58.6274 -23.8048 55.6168 -25.8958 52.578Z" fill="white" fill-opacity="0.03"/>
</g>
<defs>
<clipPath id="clip0">
<rect width="81" height="82" fill="white" transform="translate(-40.291 0.636612)"/>
</clipPath>
</defs>
</svg>
