<svg width="175" height="250" viewBox="0 0 175 250" fill="none" xmlns="http://www.w3.org/2000/svg">
<g clip-path="url(#clip0)">
<g filter="url(#filter0_dddddd)">
<rect x="0.855469" y="0.941162" width="173.33" height="249.074" rx="15" fill="url(#paint0_linear)"/>
</g>
<g clip-path="url(#clip1)">
<path d="M96.5308 146.836C97.9961 154.803 99.2765 162.798 100.742 170.765C105.337 177.437 110.089 183.996 114.684 190.668C121.356 195.263 127.915 200.015 134.587 204.61C142.554 206.076 150.55 207.356 158.517 208.821C166.483 207.356 174.479 206.076 182.446 204.61C189.118 200.015 195.677 195.263 202.349 190.668C206.944 183.996 211.696 177.437 216.291 170.765C217.757 162.798 219.037 154.803 220.502 146.836C219.037 138.869 217.757 130.873 216.291 122.906C211.696 116.234 206.944 109.676 202.349 103.003C195.677 98.408 189.118 93.6563 182.446 89.061C174.493 87.5814 166.498 86.301 158.531 84.8357C150.564 86.301 142.568 87.5814 134.601 89.0468C127.929 93.642 121.371 98.3937 114.698 102.989C110.103 109.661 105.351 116.22 100.756 122.892C99.2765 130.859 97.9961 138.869 96.5308 146.836ZM106.589 168.346C105.28 161.19 104.114 153.992 102.819 146.836C104.114 139.665 105.28 132.481 106.589 125.325C110.729 119.335 114.983 113.431 119.137 107.442C125.126 103.302 131.031 99.0339 137.02 94.894C144.176 93.5851 151.375 92.4185 158.531 91.1239C165.701 92.4185 172.886 93.5851 180.042 94.894C186.031 99.0339 191.935 103.288 197.925 107.442C202.064 113.431 206.332 119.335 210.472 125.325C211.781 132.481 212.948 139.68 214.243 146.836C212.934 153.992 211.767 161.19 210.458 168.346C206.318 174.336 202.064 180.24 197.91 186.229C191.921 190.369 186.017 194.637 180.027 198.777C172.871 200.086 165.673 201.253 158.517 202.547C151.346 201.253 144.162 200.086 137.006 198.777C131.016 194.637 125.112 190.384 119.123 186.229C114.997 180.24 110.729 174.336 106.589 168.346Z" fill="white" fill-opacity="0.05"/>
<path d="M151.603 146.836C151.731 147.732 151.859 148.642 152.001 149.539C152.542 150.264 153.082 151.004 153.637 151.73C154.363 152.27 155.088 152.825 155.828 153.366C156.724 153.494 157.635 153.636 158.531 153.764C159.427 153.636 160.338 153.508 161.234 153.366C161.96 152.825 162.699 152.284 163.425 151.73C163.966 151.004 164.52 150.278 165.061 149.539C165.189 148.642 165.331 147.732 165.459 146.836C165.331 145.939 165.203 145.029 165.061 144.133C164.52 143.407 163.98 142.667 163.425 141.942C162.699 141.401 161.974 140.846 161.234 140.306C160.338 140.178 159.427 140.035 158.531 139.907C157.635 140.035 156.724 140.163 155.828 140.306C155.102 140.846 154.363 141.387 153.637 141.942C153.096 142.667 152.542 143.393 152.001 144.133C151.873 145.029 151.731 145.925 151.603 146.836ZM157.364 147.319C157.336 147.163 157.322 146.992 157.293 146.836C157.322 146.679 157.336 146.508 157.364 146.352C157.464 146.224 157.564 146.096 157.663 145.954C157.791 145.854 157.919 145.754 158.061 145.669C158.218 145.641 158.389 145.626 158.545 145.598C158.702 145.626 158.872 145.641 159.029 145.669C159.157 145.769 159.285 145.868 159.427 145.954C159.527 146.082 159.626 146.21 159.712 146.352C159.74 146.508 159.754 146.679 159.783 146.836C159.754 146.992 159.74 147.163 159.712 147.319C159.612 147.447 159.513 147.575 159.427 147.718C159.299 147.817 159.171 147.917 159.029 148.016C158.872 148.045 158.702 148.059 158.545 148.088C158.389 148.059 158.218 148.045 158.061 148.016C157.933 147.917 157.805 147.817 157.663 147.718C157.549 147.575 157.464 147.447 157.364 147.319Z" fill="white" fill-opacity="0.05"/>
<path d="M111.753 146.836C112.835 152.854 113.831 158.886 114.912 164.904C118.412 169.926 121.968 174.891 125.454 179.913C130.476 183.398 135.441 186.969 140.463 190.455C146.481 191.536 152.513 192.518 158.531 193.613C164.549 192.532 170.581 191.536 176.599 190.455C181.621 186.955 186.586 183.398 191.608 179.913C195.093 174.891 198.664 169.926 202.15 164.904C203.231 158.886 204.213 152.854 205.308 146.836C204.227 140.818 203.231 134.786 202.15 128.768C198.65 123.746 195.093 118.781 191.608 113.759C186.586 110.273 181.621 106.702 176.599 103.217C170.581 102.135 164.549 101.154 158.531 100.058C152.513 101.139 146.481 102.135 140.463 103.217C135.441 106.716 130.476 110.273 125.454 113.759C121.968 118.781 118.397 123.746 114.912 128.768C113.831 134.786 112.849 140.818 111.753 146.836ZM144.489 152.64C144.19 150.705 143.906 148.77 143.635 146.821C143.906 144.887 144.19 142.938 144.489 141.003C145.641 139.424 146.808 137.844 147.989 136.279C149.554 135.099 151.119 133.932 152.712 132.78C154.647 132.481 156.582 132.196 158.531 131.926C160.466 132.196 162.415 132.481 164.35 132.78C165.929 133.932 167.508 135.099 169.073 136.279C170.254 137.844 171.42 139.409 172.573 141.003C172.871 142.938 173.156 144.872 173.426 146.821C173.156 148.756 172.871 150.705 172.573 152.64C171.42 154.219 170.254 155.798 169.073 157.363C167.508 158.544 165.943 159.711 164.35 160.863C162.415 161.162 160.48 161.446 158.531 161.717C156.596 161.446 154.647 161.162 152.712 160.863C151.133 159.711 149.554 158.544 147.989 157.363C146.822 155.798 145.656 154.219 144.489 152.64ZM130.063 148.016C130.035 147.817 130.049 147.832 130.077 148.073C130.12 148.372 130.12 148.344 130.063 147.988C130.063 148.002 130.063 148.002 130.063 148.016ZM139.239 167.792C139.083 167.678 139.097 167.678 139.296 167.834C139.538 168.019 139.51 168.005 139.225 167.777C139.225 167.777 139.239 167.792 139.239 167.792ZM159.712 175.289C159.512 175.318 159.527 175.303 159.769 175.275C160.067 175.232 160.039 175.232 159.683 175.289C159.697 175.289 159.697 175.289 159.712 175.289ZM179.487 166.127C179.373 166.284 179.373 166.269 179.529 166.07C179.714 165.828 179.7 165.857 179.473 166.141C179.473 166.141 179.487 166.127 179.487 166.127ZM186.984 145.655C187.013 145.854 187.013 145.84 186.97 145.598C186.927 145.299 186.927 145.328 186.984 145.683C186.984 145.669 186.984 145.655 186.984 145.655ZM177.822 125.88C177.979 125.994 177.965 125.994 177.765 125.837C177.523 125.652 177.552 125.666 177.836 125.894C177.836 125.88 177.822 125.88 177.822 125.88ZM157.35 118.368C157.549 118.34 157.535 118.354 157.279 118.382C156.98 118.425 157.009 118.425 157.364 118.368C157.364 118.368 157.35 118.368 157.35 118.368ZM137.575 127.544C137.689 127.388 137.689 127.402 137.532 127.601C137.347 127.843 137.361 127.815 137.589 127.53C137.575 127.53 137.575 127.544 137.575 127.544ZM130.063 145.683C130.106 145.328 130.12 145.285 130.077 145.598C130.049 145.84 130.049 145.854 130.063 145.655C130.063 145.655 130.063 145.669 130.063 145.683ZM137.589 166.141C137.361 165.857 137.347 165.828 137.532 166.07C137.689 166.269 137.689 166.284 137.575 166.127C137.575 166.127 137.575 166.141 137.589 166.141ZM157.378 175.289C157.023 175.246 156.98 175.232 157.293 175.275C157.535 175.303 157.549 175.303 157.364 175.289C157.35 175.289 157.364 175.289 157.378 175.289ZM177.836 167.777C177.552 168.005 177.523 168.019 177.765 167.834C177.965 167.678 177.979 167.678 177.822 167.792C177.822 167.792 177.836 167.777 177.836 167.777ZM186.984 147.988C186.942 148.344 186.927 148.386 186.97 148.073C186.998 147.832 186.998 147.817 186.984 148.016C186.984 148.002 186.984 148.002 186.984 147.988ZM179.473 127.53C179.7 127.815 179.714 127.843 179.529 127.601C179.373 127.402 179.373 127.388 179.487 127.544C179.487 127.544 179.473 127.53 179.473 127.53ZM159.683 118.368C160.039 118.411 160.082 118.425 159.769 118.382C159.527 118.354 159.512 118.354 159.712 118.368C159.697 118.368 159.697 118.368 159.683 118.368ZM139.225 125.894C139.51 125.666 139.538 125.652 139.296 125.837C139.097 125.994 139.083 125.994 139.239 125.88C139.239 125.88 139.225 125.88 139.225 125.894ZM130.205 146.836C130.134 147.021 130.092 147.22 130.063 147.433C130.021 147.647 130.035 147.86 130.077 148.073C130.077 148.244 130.12 148.401 130.191 148.557C130.362 148.927 130.476 149.211 130.775 149.496C131.443 150.15 132.311 150.207 133.193 150.136C135.398 149.923 137.475 149.126 139.538 148.386C139.78 150.122 140.036 151.858 140.292 153.593C134.986 154.404 126.976 155.073 126.208 148.514C126.137 147.917 126.137 147.362 126.208 146.85C126.137 146.338 126.137 145.783 126.208 145.185C126.976 138.627 134.986 139.295 140.292 140.106C140.022 141.842 139.78 143.578 139.538 145.313C137.461 144.574 135.398 143.777 133.193 143.563C132.311 143.478 131.443 143.549 130.775 144.204C130.476 144.488 130.362 144.773 130.191 145.143C130.12 145.299 130.077 145.456 130.077 145.626C130.035 145.84 130.021 146.053 130.063 146.267C130.092 146.452 130.134 146.651 130.205 146.836ZM138.5 126.804C138.315 126.89 138.144 126.989 137.973 127.132C137.788 127.245 137.646 127.402 137.532 127.587C137.418 127.715 137.319 127.843 137.276 127.999C137.148 128.384 137.02 128.654 137.02 129.081C137.034 130.005 137.603 130.674 138.286 131.243C139.993 132.652 142.028 133.548 144.005 134.501C142.953 135.895 141.9 137.304 140.861 138.712C136.536 135.54 130.405 130.347 134.488 125.154C134.858 124.685 135.256 124.301 135.669 123.988C135.982 123.575 136.366 123.177 136.835 122.807C142.014 118.709 147.206 124.855 150.393 129.18C148.985 130.219 147.576 131.257 146.182 132.324C145.243 130.333 144.347 128.312 142.924 126.605C142.355 125.922 141.686 125.353 140.762 125.339C140.349 125.339 140.065 125.453 139.68 125.595C139.524 125.652 139.382 125.737 139.268 125.851C139.083 125.965 138.941 126.107 138.813 126.292C138.685 126.449 138.585 126.619 138.5 126.804ZM158.531 118.51C158.346 118.439 158.147 118.396 157.933 118.368C157.72 118.325 157.507 118.34 157.293 118.382C157.122 118.382 156.966 118.425 156.809 118.496C156.439 118.667 156.155 118.781 155.87 119.079C155.216 119.748 155.159 120.616 155.23 121.498C155.444 123.703 156.24 125.78 156.98 127.843C155.244 128.085 153.509 128.341 151.773 128.597C150.962 123.29 150.294 115.281 156.852 114.513C157.45 114.441 158.004 114.441 158.517 114.513C159.029 114.441 159.584 114.441 160.181 114.513C166.74 115.281 166.071 123.29 165.26 128.597C163.524 128.327 161.789 128.085 160.053 127.843C160.793 125.766 161.59 123.703 161.803 121.498C161.888 120.616 161.817 119.748 161.163 119.079C160.878 118.781 160.594 118.667 160.224 118.496C160.067 118.425 159.911 118.382 159.74 118.382C159.527 118.34 159.313 118.325 159.1 118.368C158.915 118.396 158.716 118.439 158.531 118.51ZM178.562 126.804C178.477 126.619 178.377 126.449 178.235 126.278C178.121 126.093 177.965 125.951 177.78 125.837C177.652 125.723 177.523 125.624 177.367 125.581C176.983 125.453 176.713 125.325 176.286 125.325C175.361 125.339 174.692 125.908 174.123 126.591C172.715 128.298 171.819 130.333 170.865 132.31C169.471 131.257 168.063 130.205 166.654 129.166C169.827 124.841 175.02 118.709 180.212 122.793C180.682 123.162 181.066 123.561 181.379 123.973C181.791 124.286 182.19 124.67 182.56 125.14C186.657 130.318 180.511 135.511 176.186 138.698C175.148 137.29 174.095 135.881 173.042 134.487C175.034 133.548 177.054 132.652 178.761 131.229C179.444 130.66 180.013 130.005 180.027 129.066C180.027 128.654 179.914 128.369 179.771 127.985C179.714 127.829 179.629 127.686 179.515 127.573C179.401 127.388 179.245 127.245 179.074 127.117C178.903 126.989 178.747 126.89 178.562 126.804ZM186.856 146.836C186.927 146.651 186.97 146.452 186.998 146.238C187.041 146.025 187.027 145.811 186.984 145.598C186.984 145.427 186.942 145.271 186.87 145.114C186.7 144.744 186.586 144.46 186.287 144.175C185.618 143.521 184.751 143.464 183.869 143.535C181.663 143.748 179.586 144.545 177.523 145.285C177.282 143.549 177.026 141.814 176.769 140.078C182.076 139.267 190.086 138.598 190.854 145.157C190.925 145.754 190.925 146.309 190.854 146.821C190.925 147.334 190.925 147.888 190.854 148.486C190.086 155.044 182.076 154.376 176.769 153.565C177.04 151.829 177.282 150.094 177.523 148.358C179.601 149.098 181.663 149.894 183.869 150.108C184.751 150.193 185.618 150.122 186.287 149.468C186.586 149.183 186.7 148.899 186.87 148.529C186.942 148.372 186.984 148.216 186.984 148.045C187.027 147.832 187.041 147.618 186.998 147.405C186.97 147.22 186.927 147.021 186.856 146.836ZM178.562 166.867C178.747 166.781 178.918 166.682 179.088 166.54C179.273 166.426 179.416 166.269 179.529 166.084C179.643 165.956 179.743 165.828 179.786 165.672C179.914 165.288 180.042 165.017 180.042 164.591C180.027 163.666 179.458 162.997 178.775 162.428C177.068 161.02 175.034 160.123 173.056 159.17C174.109 157.776 175.162 156.368 176.2 154.959C180.525 158.132 186.657 163.324 182.574 168.517C182.204 168.987 181.806 169.371 181.393 169.684C181.08 170.096 180.696 170.495 180.227 170.865C175.048 174.962 169.855 168.816 166.669 164.491C168.077 163.452 169.485 162.414 170.88 161.347C171.819 163.339 172.715 165.359 174.138 167.066C174.707 167.749 175.375 168.318 176.3 168.332C176.713 168.332 176.997 168.218 177.381 168.076C177.538 168.019 177.68 167.934 177.794 167.82C177.979 167.706 178.121 167.55 178.249 167.379C178.363 167.208 178.477 167.052 178.562 166.867ZM158.531 175.161C158.716 175.232 158.915 175.275 159.128 175.303C159.342 175.346 159.555 175.332 159.769 175.289C159.939 175.289 160.096 175.246 160.252 175.175C160.622 175.005 160.907 174.891 161.191 174.592C161.846 173.923 161.903 173.055 161.831 172.173C161.618 169.968 160.821 167.891 160.082 165.828C161.817 165.586 163.553 165.33 165.289 165.074C166.099 170.381 166.768 178.39 160.21 179.159C159.612 179.23 159.057 179.23 158.545 179.159C158.033 179.23 157.478 179.23 156.881 179.159C150.322 178.39 150.991 170.381 151.802 165.074C153.537 165.345 155.273 165.586 157.009 165.828C156.269 167.905 155.472 169.968 155.259 172.173C155.173 173.055 155.244 173.923 155.899 174.592C156.183 174.891 156.468 175.005 156.838 175.175C156.994 175.246 157.151 175.289 157.322 175.289C157.535 175.332 157.748 175.346 157.962 175.303C158.147 175.275 158.346 175.232 158.531 175.161ZM138.5 166.867C138.585 167.052 138.685 167.223 138.827 167.393C138.941 167.578 139.097 167.72 139.282 167.834C139.41 167.948 139.538 168.048 139.695 168.09C140.079 168.218 140.349 168.346 140.776 168.346C141.701 168.332 142.369 167.763 142.938 167.08C144.347 165.373 145.243 163.339 146.196 161.361C147.59 162.414 148.999 163.467 150.407 164.505C147.235 168.83 142.042 174.962 136.849 170.879C136.38 170.509 135.996 170.111 135.683 169.698C135.27 169.385 134.872 169.001 134.502 168.531C130.405 163.353 136.551 158.16 140.875 154.973C141.914 156.382 142.967 157.79 144.02 159.184C142.028 160.123 140.008 161.02 138.3 162.442C137.618 163.011 137.049 163.68 137.034 164.605C137.034 165.017 137.148 165.302 137.29 165.686C137.347 165.843 137.433 165.985 137.546 166.099C137.66 166.284 137.817 166.426 137.987 166.554C138.144 166.668 138.315 166.781 138.5 166.867ZM120.958 146.836C120.859 147.689 120.887 148.614 121.043 149.624C122.054 155.742 127.332 157.378 132.909 157.449C129.01 161.446 126.435 166.326 130.049 171.377C130.646 172.202 131.287 172.871 131.955 173.411C132.482 174.08 133.165 174.72 133.99 175.317C139.04 178.931 143.92 176.356 147.918 172.458C147.989 178.035 149.625 183.313 155.742 184.323C156.752 184.494 157.677 184.508 158.531 184.408C159.384 184.508 160.309 184.48 161.319 184.323C167.437 183.313 169.073 178.035 169.144 172.458C173.142 176.356 178.021 178.931 183.072 175.317C183.897 174.72 184.566 174.08 185.106 173.411C185.775 172.885 186.415 172.202 187.013 171.377C190.626 166.326 188.051 161.446 184.153 157.449C189.73 157.378 195.008 155.742 196.018 149.624C196.189 148.614 196.203 147.689 196.104 146.836C196.203 145.982 196.175 145.057 196.018 144.047C195.008 137.93 189.73 136.294 184.153 136.223C188.051 132.225 190.626 127.345 187.013 122.295C186.415 121.469 185.775 120.801 185.106 120.26C184.58 119.591 183.897 118.951 183.072 118.354C178.021 114.74 173.142 117.315 169.144 121.213C169.073 115.636 167.437 110.358 161.319 109.348C160.309 109.178 159.384 109.163 158.531 109.263C157.677 109.163 156.752 109.192 155.742 109.348C149.625 110.358 147.989 115.636 147.918 121.213C143.92 117.315 139.04 114.74 133.99 118.354C133.165 118.951 132.496 119.591 131.955 120.26C131.287 120.787 130.646 121.469 130.049 122.295C126.435 127.345 129.01 132.225 132.909 136.223C127.332 136.294 122.054 137.93 121.043 144.047C120.887 145.057 120.859 145.982 120.958 146.836ZM118.568 163.381C117.586 157.876 116.676 152.341 115.694 146.836C116.676 141.316 117.586 135.796 118.568 130.29C121.769 125.695 125.027 121.142 128.228 116.547C132.823 113.346 137.376 110.088 141.971 106.887C147.477 105.905 153.011 104.995 158.517 104.013C164.037 104.995 169.557 105.905 175.062 106.887C179.657 110.088 184.21 113.346 188.805 116.547C192.006 121.142 195.264 125.695 198.465 130.29C199.447 135.796 200.357 141.33 201.339 146.836C200.357 152.341 199.447 157.876 198.465 163.381C195.264 167.977 192.006 172.529 188.805 177.124C184.21 180.325 179.657 183.583 175.062 186.784C169.557 187.766 164.022 188.676 158.517 189.658C152.997 188.676 147.477 187.766 141.971 186.784C137.376 183.583 132.823 180.325 128.228 177.124C125.041 172.529 121.769 167.977 118.568 163.381Z" fill="white" fill-opacity="0.05"/>
</g>
<g clip-path="url(#clip2)">
<path d="M-39.8389 234.613C-38.8817 239.882 -38.0453 245.169 -37.0881 250.437C-34.0863 254.85 -30.9824 259.187 -27.9807 263.599C-23.6221 266.638 -19.338 269.78 -14.9794 272.819C-9.77519 273.788 -4.55238 274.635 0.651838 275.604C5.85606 274.635 11.0789 273.788 16.2831 272.819C20.6416 269.78 24.9258 266.638 29.2843 263.599C32.2861 259.187 35.39 254.85 38.3917 250.437C39.3489 245.169 40.1853 239.882 41.1425 234.613C40.1853 229.345 39.3489 224.057 38.3917 218.789C35.39 214.377 32.2861 210.04 29.2843 205.627C24.9258 202.588 20.6416 199.446 16.2831 196.407C11.0882 195.429 5.86535 194.582 0.661133 193.613C-4.54309 194.582 -9.7659 195.429 -14.9701 196.398C-19.3287 199.437 -23.6128 202.579 -27.9714 205.618C-30.9731 210.03 -34.0771 214.367 -37.0788 218.78C-38.0453 224.048 -38.8817 229.345 -39.8389 234.613ZM-33.2685 248.838C-34.1235 244.106 -34.8856 239.345 -35.7312 234.613C-34.8856 229.872 -34.1235 225.12 -33.2685 220.388C-30.5642 216.428 -27.7855 212.523 -25.0719 208.562C-21.1594 205.825 -17.3027 203.002 -13.3903 200.265C-8.71576 199.399 -4.01337 198.628 0.661133 197.771C5.34493 198.628 10.038 199.399 14.7125 200.265C18.625 203.002 22.4817 205.815 26.3941 208.562C29.0985 212.523 31.8865 216.428 34.5908 220.388C35.4458 225.12 36.2078 229.881 37.0535 234.613C36.1985 239.345 35.4365 244.106 34.5815 248.838C31.8772 252.799 29.0985 256.703 26.3849 260.664C22.4724 263.402 18.6157 266.224 14.7032 268.962C10.0287 269.827 5.32634 270.599 0.651838 271.455C-4.03196 270.599 -8.72505 269.827 -13.3996 268.962C-17.312 266.224 -21.1687 263.411 -25.0812 260.664C-27.7762 256.703 -30.5642 252.799 -33.2685 248.838Z" fill="white" fill-opacity="0.03"/>
<path d="M-3.86475 234.613C-3.78111 235.206 -3.69747 235.808 -3.60453 236.401C-3.25139 236.881 -2.89825 237.37 -2.53581 237.85C-2.06185 238.207 -1.5879 238.574 -1.10465 238.931C-0.519173 239.016 0.0755967 239.11 0.661072 239.195C1.24655 239.11 1.84131 239.026 2.42679 238.931C2.90074 238.574 3.38399 238.216 3.85795 237.85C4.21109 237.37 4.57353 236.89 4.92667 236.401C5.01031 235.808 5.10325 235.206 5.18689 234.613C5.10325 234.02 5.01961 233.418 4.92667 232.826C4.57353 232.346 4.22039 231.857 3.85795 231.377C3.38399 231.019 2.91004 230.652 2.42679 230.295C1.84131 230.21 1.24655 230.116 0.661072 230.031C0.0755967 230.116 -0.519173 230.201 -1.10465 230.295C-1.5786 230.652 -2.06185 231.01 -2.53581 231.377C-2.88895 231.857 -3.25139 232.336 -3.60453 232.826C-3.68817 233.418 -3.78111 234.011 -3.86475 234.613ZM-0.100978 234.933C-0.119565 234.83 -0.128857 234.717 -0.147444 234.613C-0.128857 234.51 -0.119565 234.397 -0.100978 234.293C-0.0359257 234.209 0.0291298 234.124 0.0941826 234.03C0.177822 233.964 0.26146 233.898 0.354393 233.842C0.456618 233.823 0.568138 233.814 0.670363 233.795C0.772589 233.814 0.884108 233.823 0.986334 233.842C1.06997 233.908 1.15361 233.973 1.24654 234.03C1.3116 234.115 1.37665 234.199 1.43241 234.293C1.451 234.397 1.46029 234.51 1.47888 234.613C1.46029 234.717 1.451 234.83 1.43241 234.933C1.36736 235.018 1.3023 235.102 1.24654 235.196C1.1629 235.262 1.07927 235.328 0.986334 235.394C0.884108 235.413 0.772589 235.422 0.670363 235.441C0.568138 235.422 0.456618 235.413 0.354393 235.394C0.270753 235.328 0.187115 235.262 0.0941826 235.196C0.0198366 235.102 -0.0359257 235.018 -0.100978 234.933Z" fill="white" fill-opacity="0.03"/>
<path d="M-29.895 234.613C-29.1887 238.593 -28.5382 242.582 -27.8319 246.561C-25.5458 249.882 -23.2225 253.166 -20.9456 256.487C-17.6651 258.792 -14.4218 261.153 -11.1412 263.458C-7.21019 264.173 -3.26985 264.822 0.661195 265.547C4.59224 264.832 8.53258 264.173 12.4636 263.458C15.7441 261.144 18.9875 258.792 22.268 256.487C24.5449 253.166 26.8775 249.882 29.1543 246.561C29.8606 242.582 30.5018 238.593 31.2174 234.613C30.5111 230.634 29.8606 226.645 29.1543 222.665C26.8682 219.344 24.5449 216.061 22.268 212.74C18.9875 210.435 15.7441 208.073 12.4636 205.768C8.53258 205.053 4.59224 204.404 0.661195 203.68C-3.26985 204.395 -7.21019 205.053 -11.1412 205.768C-14.4218 208.083 -17.6651 210.435 -20.9456 212.74C-23.2225 216.061 -25.5551 219.344 -27.8319 222.665C-28.5382 226.645 -29.1794 230.634 -29.895 234.613ZM-8.51125 238.452C-8.70641 237.172 -8.89227 235.893 -9.06884 234.604C-8.89227 233.324 -8.70641 232.035 -8.51125 230.756C-7.75849 229.712 -6.99645 228.667 -6.22511 227.632C-5.20285 226.852 -4.18059 226.08 -3.13975 225.318C-1.87586 225.12 -0.611981 224.932 0.661195 224.754C1.92508 224.932 3.19825 225.12 4.46213 225.318C5.49368 226.08 6.52524 226.852 7.54749 227.632C8.31883 228.667 9.08088 229.702 9.83363 230.756C10.0288 232.035 10.2147 233.315 10.3912 234.604C10.2147 235.883 10.0288 237.172 9.83363 238.452C9.08088 239.496 8.31883 240.54 7.54749 241.575C6.52524 242.356 5.50298 243.127 4.46213 243.889C3.19825 244.087 1.93437 244.275 0.661195 244.454C-0.602688 244.275 -1.87586 244.087 -3.13975 243.889C-4.1713 243.127 -5.20285 242.356 -6.22511 241.575C-6.98716 240.54 -7.7492 239.496 -8.51125 238.452ZM-17.9346 235.394C-17.9532 235.262 -17.9439 235.272 -17.9253 235.432C-17.8974 235.629 -17.8974 235.61 -17.9346 235.375C-17.9346 235.385 -17.9346 235.385 -17.9346 235.394ZM-11.9405 248.471C-12.0427 248.396 -12.0334 248.396 -11.9033 248.499C-11.7453 248.622 -11.7639 248.612 -11.9497 248.462C-11.9497 248.462 -11.9405 248.471 -11.9405 248.471ZM1.43253 253.429C1.30243 253.448 1.31172 253.439 1.46971 253.42C1.66487 253.391 1.64628 253.391 1.41395 253.429C1.42324 253.429 1.42324 253.429 1.43253 253.429ZM14.3502 247.37C14.2758 247.474 14.2758 247.464 14.378 247.333C14.4988 247.173 14.4896 247.192 14.3409 247.38C14.3409 247.38 14.3502 247.37 14.3502 247.37ZM19.2477 233.832C19.2663 233.964 19.2663 233.955 19.2384 233.795C19.2105 233.597 19.2105 233.616 19.2477 233.851C19.2477 233.842 19.2477 233.832 19.2477 233.832ZM13.2628 220.755C13.3651 220.83 13.3558 220.83 13.2257 220.727C13.0677 220.605 13.0863 220.614 13.2721 220.765C13.2721 220.755 13.2628 220.755 13.2628 220.755ZM-0.110147 215.788C0.0199587 215.769 0.0106662 215.778 -0.156612 215.797C-0.351771 215.825 -0.333186 215.825 -0.100855 215.788C-0.100855 215.788 -0.110147 215.788 -0.110147 215.788ZM-13.0278 221.856C-12.9534 221.752 -12.9534 221.762 -13.0556 221.894C-13.1765 222.053 -13.1672 222.035 -13.0185 221.847C-13.0278 221.847 -13.0278 221.856 -13.0278 221.856ZM-17.9346 233.851C-17.9067 233.616 -17.8974 233.588 -17.9253 233.795C-17.9439 233.955 -17.9439 233.964 -17.9346 233.832C-17.9346 233.832 -17.9346 233.842 -17.9346 233.851ZM-13.0185 247.38C-13.1672 247.192 -13.1765 247.173 -13.0556 247.333C-12.9534 247.464 -12.9534 247.474 -13.0278 247.37C-13.0278 247.37 -13.0278 247.38 -13.0185 247.38ZM-0.0915599 253.429C-0.323891 253.401 -0.351772 253.391 -0.147321 253.42C0.0106646 253.439 0.0199571 253.439 -0.100855 253.429C-0.110148 253.429 -0.100853 253.429 -0.0915599 253.429ZM13.2721 248.462C13.0863 248.612 13.0677 248.622 13.2257 248.499C13.3558 248.396 13.3651 248.396 13.2628 248.471C13.2628 248.471 13.2721 248.462 13.2721 248.462ZM19.2477 235.375C19.2198 235.61 19.2105 235.639 19.2384 235.432C19.257 235.272 19.257 235.262 19.2477 235.394C19.2477 235.385 19.2477 235.385 19.2477 235.375ZM14.3409 221.847C14.4896 222.035 14.4988 222.053 14.378 221.894C14.2758 221.762 14.2758 221.752 14.3502 221.856C14.3502 221.856 14.3409 221.847 14.3409 221.847ZM1.41395 215.788C1.64628 215.816 1.67416 215.825 1.46971 215.797C1.31172 215.778 1.30243 215.778 1.43253 215.788C1.42324 215.788 1.42324 215.788 1.41395 215.788ZM-11.9497 220.765C-11.7639 220.614 -11.7453 220.605 -11.9033 220.727C-12.0334 220.83 -12.0427 220.83 -11.9405 220.755C-11.9405 220.755 -11.9497 220.755 -11.9497 220.765ZM-17.8417 234.613C-17.8881 234.735 -17.916 234.867 -17.9346 235.008C-17.9625 235.149 -17.9532 235.291 -17.9253 235.432C-17.9253 235.545 -17.8974 235.648 -17.851 235.752C-17.7394 235.996 -17.6651 236.184 -17.4699 236.372C-17.0332 236.805 -16.4663 236.843 -15.8901 236.796C-14.4496 236.655 -13.0928 236.128 -11.7453 235.639C-11.5873 236.786 -11.42 237.934 -11.2528 239.082C-14.7191 239.618 -19.9512 240.06 -20.4531 235.723C-20.4995 235.328 -20.4995 234.961 -20.4531 234.623C-20.4995 234.284 -20.4995 233.917 -20.4531 233.522C-19.9512 229.185 -14.7191 229.627 -11.2528 230.163C-11.4293 231.311 -11.5873 232.459 -11.7453 233.606C-13.1021 233.117 -14.4496 232.59 -15.8901 232.449C-16.4663 232.393 -17.0332 232.44 -17.4699 232.873C-17.6651 233.061 -17.7394 233.249 -17.851 233.494C-17.8974 233.597 -17.9253 233.701 -17.9253 233.813C-17.9532 233.955 -17.9625 234.096 -17.9346 234.237C-17.916 234.359 -17.8881 234.491 -17.8417 234.613ZM-12.4237 221.367C-12.5445 221.423 -12.656 221.489 -12.7676 221.583C-12.8884 221.658 -12.9813 221.762 -13.0556 221.884C-13.13 221.969 -13.195 222.053 -13.2229 222.157C-13.3066 222.411 -13.3902 222.59 -13.3902 222.872C-13.3809 223.483 -13.0092 223.926 -12.5631 224.302C-11.4479 225.233 -10.119 225.826 -8.82722 226.456C-9.51492 227.378 -10.2026 228.31 -10.881 229.241C-13.7062 227.143 -17.7116 223.709 -15.0444 220.275C-14.8028 219.965 -14.5426 219.711 -14.2731 219.504C-14.0686 219.231 -13.8177 218.968 -13.511 218.723C-10.1283 216.014 -6.73624 220.078 -4.65455 222.938C-5.57458 223.625 -6.49461 224.311 -7.40535 225.017C-8.0187 223.7 -8.60418 222.364 -9.5335 221.235C-9.90523 220.783 -10.342 220.407 -10.9461 220.398C-11.2156 220.398 -11.4014 220.473 -11.6524 220.567C-11.7546 220.605 -11.8475 220.661 -11.9219 220.736C-12.0427 220.812 -12.1356 220.906 -12.2193 221.028C-12.3029 221.131 -12.3679 221.244 -12.4237 221.367ZM0.661195 215.882C0.540383 215.835 0.410275 215.807 0.270876 215.788C0.131478 215.76 -0.00792191 215.769 -0.147321 215.797C-0.25884 215.797 -0.361066 215.825 -0.463291 215.872C-0.704916 215.985 -0.890781 216.061 -1.07665 216.258C-1.50414 216.7 -1.54131 217.274 -1.49484 217.858C-1.35544 219.316 -0.835019 220.689 -0.35177 222.053C-1.48555 222.213 -2.61932 222.383 -3.7531 222.552C-4.28282 219.043 -4.7196 213.746 -0.435409 213.238C-0.0450927 213.191 0.317342 213.191 0.6519 213.238C0.986457 213.191 1.3489 213.191 1.73921 213.238C6.0234 213.746 5.58662 219.043 5.0569 222.552C3.92313 222.373 2.78935 222.213 1.65557 222.053C2.13882 220.68 2.65924 219.316 2.79864 217.858C2.8544 217.274 2.80793 216.7 2.38045 216.258C2.19458 216.061 2.00872 215.985 1.76709 215.872C1.66486 215.825 1.56264 215.797 1.45112 215.797C1.31172 215.769 1.17232 215.76 1.03292 215.788C0.91211 215.807 0.782007 215.835 0.661195 215.882ZM13.7461 221.367C13.6903 221.244 13.6253 221.131 13.5323 221.019C13.458 220.896 13.3558 220.802 13.235 220.727C13.1513 220.652 13.0677 220.586 12.9655 220.558C12.7145 220.473 12.538 220.388 12.2592 220.388C11.6551 220.398 11.2183 220.774 10.8466 221.226C9.92657 222.355 9.34109 223.7 8.71844 225.008C7.8077 224.311 6.88767 223.615 5.96764 222.928C8.04004 220.068 11.4321 216.014 14.8241 218.714C15.1308 218.958 15.3817 219.222 15.5862 219.495C15.8557 219.701 16.1159 219.955 16.3575 220.266C19.034 223.69 15.0193 227.124 12.1941 229.232C11.5157 228.3 10.828 227.369 10.1403 226.447C11.4414 225.826 12.761 225.233 13.8762 224.293C14.3223 223.916 14.694 223.483 14.7033 222.863C14.7033 222.59 14.6289 222.402 14.536 222.148C14.4988 222.044 14.4431 221.95 14.3687 221.875C14.2944 221.752 14.1922 221.658 14.0806 221.574C13.9691 221.489 13.8669 221.423 13.7461 221.367ZM19.1641 234.613C19.2105 234.491 19.2384 234.359 19.257 234.218C19.2849 234.077 19.2756 233.936 19.2477 233.795C19.2477 233.682 19.2198 233.578 19.1734 233.475C19.0618 233.23 18.9875 233.042 18.7923 232.854C18.3555 232.421 17.7887 232.383 17.2125 232.43C15.772 232.572 14.4152 233.098 13.0677 233.588C12.9097 232.44 12.7424 231.292 12.5751 230.144C16.0415 229.608 21.2736 229.166 21.7755 233.503C21.8219 233.898 21.8219 234.265 21.7755 234.604C21.8219 234.942 21.8219 235.309 21.7755 235.704C21.2736 240.042 16.0415 239.599 12.5751 239.063C12.7517 237.915 12.9097 236.768 13.0677 235.62C14.4245 236.109 15.772 236.636 17.2125 236.777C17.7887 236.833 18.3555 236.786 18.7923 236.354C18.9875 236.165 19.0618 235.977 19.1734 235.733C19.2198 235.629 19.2477 235.526 19.2477 235.413C19.2756 235.272 19.2849 235.131 19.257 234.989C19.2384 234.867 19.2105 234.735 19.1641 234.613ZM13.7461 247.86C13.8669 247.803 13.9784 247.737 14.0899 247.643C14.2108 247.568 14.3037 247.464 14.378 247.342C14.4524 247.257 14.5174 247.173 14.5453 247.069C14.629 246.815 14.7126 246.637 14.7126 246.354C14.7033 245.743 14.3316 245.301 13.8855 244.924C12.7703 243.993 11.4414 243.4 10.1496 242.77C10.8373 241.848 11.525 240.916 12.2034 239.985C15.0286 242.083 19.034 245.517 16.3668 248.951C16.1252 249.261 15.865 249.515 15.5955 249.722C15.391 249.995 15.1401 250.259 14.8334 250.503C11.4507 253.213 8.05862 249.148 5.97693 246.288C6.89696 245.602 7.817 244.915 8.72773 244.209C9.34109 245.526 9.92656 246.862 10.8559 247.991C11.2276 248.443 11.6644 248.819 12.2685 248.829C12.538 248.829 12.7238 248.753 12.9748 248.659C13.077 248.622 13.1699 248.565 13.2443 248.49C13.3651 248.415 13.458 248.311 13.5416 248.198C13.616 248.085 13.6903 247.982 13.7461 247.86ZM0.661195 253.344C0.782007 253.391 0.912111 253.42 1.05151 253.439C1.19091 253.467 1.33031 253.457 1.46971 253.429C1.58123 253.429 1.68345 253.401 1.78568 253.354C2.0273 253.241 2.21317 253.166 2.39903 252.968C2.82652 252.526 2.8637 251.952 2.81723 251.369C2.67783 249.911 2.1574 248.537 1.67416 247.173C2.80793 247.013 3.94171 246.844 5.07549 246.674C5.6052 250.183 6.04198 255.48 1.7578 255.988C1.36748 256.035 1.00504 256.035 0.670486 255.988C0.335929 256.035 -0.0265093 256.035 -0.416826 255.988C-4.70102 255.48 -4.26423 250.183 -3.73452 246.674C-2.60074 246.853 -1.46696 247.013 -0.333186 247.173C-0.816436 248.546 -1.33686 249.911 -1.47626 251.369C-1.53202 251.952 -1.48555 252.526 -1.05806 252.968C-0.872194 253.166 -0.686329 253.241 -0.444704 253.354C-0.342479 253.401 -0.240253 253.429 -0.128734 253.429C0.010665 253.457 0.150064 253.467 0.289463 253.439C0.410276 253.42 0.540383 253.391 0.661195 253.344ZM-12.4237 247.86C-12.3679 247.982 -12.3029 248.095 -12.21 248.208C-12.1356 248.33 -12.0334 248.424 -11.9126 248.499C-11.8289 248.575 -11.7453 248.64 -11.6431 248.669C-11.3922 248.753 -11.2156 248.838 -10.9368 248.838C-10.3327 248.829 -9.89594 248.452 -9.52421 248.001C-8.60418 246.872 -8.0187 245.526 -7.39606 244.219C-6.48532 244.915 -5.56529 245.611 -4.64525 246.298C-6.71765 249.158 -10.1097 253.213 -13.5017 250.513C-13.8084 250.268 -14.0593 250.005 -14.2638 249.732C-14.5333 249.525 -14.7935 249.271 -15.0351 248.96C-17.7116 245.536 -13.6969 242.102 -10.8717 239.995C-10.1933 240.926 -9.50562 241.857 -8.81792 242.779C-10.119 243.4 -11.4386 243.993 -12.5538 244.934C-12.9999 245.31 -13.3716 245.752 -13.3809 246.364C-13.3809 246.637 -13.3066 246.825 -13.2136 247.079C-13.1765 247.182 -13.1207 247.276 -13.0464 247.352C-12.972 247.474 -12.8698 247.568 -12.7583 247.653C-12.656 247.728 -12.5445 247.803 -12.4237 247.86ZM-23.8823 234.613C-23.9473 235.178 -23.9288 235.789 -23.8265 236.457C-23.1667 240.503 -19.7189 241.584 -16.076 241.631C-18.6223 244.275 -20.3044 247.502 -17.9439 250.842C-17.5536 251.388 -17.1354 251.83 -16.6986 252.187C-16.3548 252.629 -15.9087 253.053 -15.3697 253.448C-12.0706 255.838 -8.88298 254.135 -6.27157 251.557C-6.22511 255.245 -5.15638 258.735 -1.16029 259.403C-0.500464 259.516 0.1036 259.525 0.661195 259.46C1.21879 259.525 1.82285 259.507 2.48267 259.403C6.47877 258.735 7.54749 255.245 7.59396 251.557C10.2054 254.135 13.393 255.838 16.6921 253.448C17.2311 253.053 17.6678 252.629 18.021 252.187C18.4578 251.839 18.876 251.388 19.2663 250.842C21.6268 247.502 19.9447 244.275 17.3983 241.631C21.0413 241.584 24.4891 240.503 25.1489 236.457C25.2604 235.789 25.2697 235.178 25.2047 234.613C25.2697 234.049 25.2511 233.437 25.1489 232.769C24.4891 228.724 21.0413 227.642 17.3983 227.595C19.9447 224.951 21.6268 221.724 19.2663 218.384C18.876 217.839 18.4578 217.397 18.021 217.039C17.6771 216.597 17.2311 216.173 16.6921 215.778C13.393 213.389 10.2054 215.092 7.59396 217.669C7.54749 213.981 6.47877 210.491 2.48267 209.823C1.82285 209.71 1.21879 209.701 0.661195 209.767C0.1036 209.701 -0.500464 209.72 -1.16029 209.823C-5.15638 210.491 -6.22511 213.981 -6.27157 217.669C-8.88298 215.092 -12.0706 213.389 -15.3697 215.778C-15.9087 216.173 -16.3455 216.597 -16.6986 217.039C-17.1354 217.387 -17.5536 217.839 -17.9439 218.384C-20.3044 221.724 -18.6223 224.951 -16.076 227.595C-19.7189 227.642 -23.1667 228.724 -23.8265 232.769C-23.9288 233.437 -23.9473 234.049 -23.8823 234.613ZM-25.4436 245.555C-26.0848 241.914 -26.6796 238.254 -27.3208 234.613C-26.6796 230.963 -26.0848 227.313 -25.4436 223.672C-23.3526 220.633 -21.2244 217.622 -19.1334 214.584C-16.1317 212.467 -13.1579 210.312 -10.1562 208.196C-6.55966 207.546 -2.94459 206.944 0.6519 206.295C4.25768 206.944 7.86346 207.546 11.46 208.196C14.4617 210.312 17.4355 212.467 20.4372 214.584C22.5282 217.622 24.6564 220.633 26.7474 223.672C27.3886 227.313 27.9834 230.972 28.6246 234.613C27.9834 238.254 27.3886 241.914 26.7474 245.555C24.6564 248.593 22.5282 251.604 20.4372 254.643C17.4355 256.76 14.4617 258.914 11.46 261.031C7.86346 261.68 4.24839 262.282 0.6519 262.931C-2.95388 262.282 -6.55966 261.68 -10.1562 261.031C-13.1579 258.914 -16.1317 256.76 -19.1334 254.643C-21.2151 251.604 -23.3526 248.593 -25.4436 245.555Z" fill="white" fill-opacity="0.03"/>
</g>
</g>
<defs>
<filter id="filter0_dddddd" x="-79.1445" y="0.941162" width="333.33" height="429.074" filterUnits="userSpaceOnUse" color-interpolation-filters="sRGB">
<feFlood flood-opacity="0" result="BackgroundImageFix"/>
<feColorMatrix in="SourceAlpha" type="matrix" values="0 0 0 0 0 0 0 0 0 0 0 0 0 0 0 0 0 0 127 0" result="hardAlpha"/>
<feOffset dy="2.76726"/>
<feGaussianBlur stdDeviation="1.1069"/>
<feColorMatrix type="matrix" values="0 0 0 0 0 0 0 0 0 0 0 0 0 0 0 0 0 0 0.0196802 0"/>
<feBlend mode="normal" in2="BackgroundImageFix" result="effect1_dropShadow"/>
<feColorMatrix in="SourceAlpha" type="matrix" values="0 0 0 0 0 0 0 0 0 0 0 0 0 0 0 0 0 0 127 0" result="hardAlpha"/>
<feOffset dy="6.6501"/>
<feGaussianBlur stdDeviation="2.66004"/>
<feColorMatrix type="matrix" values="0 0 0 0 0 0 0 0 0 0 0 0 0 0 0 0 0 0 0.0282725 0"/>
<feBlend mode="normal" in2="effect1_dropShadow" result="effect2_dropShadow"/>
<feColorMatrix in="SourceAlpha" type="matrix" values="0 0 0 0 0 0 0 0 0 0 0 0 0 0 0 0 0 0 127 0" result="hardAlpha"/>
<feOffset dy="12.5216"/>
<feGaussianBlur stdDeviation="5.00862"/>
<feColorMatrix type="matrix" values="0 0 0 0 0 0 0 0 0 0 0 0 0 0 0 0 0 0 0.035 0"/>
<feBlend mode="normal" in2="effect2_dropShadow" result="effect3_dropShadow"/>
<feColorMatrix in="SourceAlpha" type="matrix" values="0 0 0 0 0 0 0 0 0 0 0 0 0 0 0 0 0 0 127 0" result="hardAlpha"/>
<feOffset dy="22.3363"/>
<feGaussianBlur stdDeviation="8.93452"/>
<feColorMatrix type="matrix" values="0 0 0 0 0 0 0 0 0 0 0 0 0 0 0 0 0 0 0.0417275 0"/>
<feBlend mode="normal" in2="effect3_dropShadow" result="effect4_dropShadow"/>
<feColorMatrix in="SourceAlpha" type="matrix" values="0 0 0 0 0 0 0 0 0 0 0 0 0 0 0 0 0 0 127 0" result="hardAlpha"/>
<feOffset dy="41.7776"/>
<feGaussianBlur stdDeviation="16.711"/>
<feColorMatrix type="matrix" values="0 0 0 0 0 0 0 0 0 0 0 0 0 0 0 0 0 0 0.0503198 0"/>
<feBlend mode="normal" in2="effect4_dropShadow" result="effect5_dropShadow"/>
<feColorMatrix in="SourceAlpha" type="matrix" values="0 0 0 0 0 0 0 0 0 0 0 0 0 0 0 0 0 0 127 0" result="hardAlpha"/>
<feOffset dy="100"/>
<feGaussianBlur stdDeviation="40"/>
<feColorMatrix type="matrix" values="0 0 0 0 0 0 0 0 0 0 0 0 0 0 0 0 0 0 0.07 0"/>
<feBlend mode="normal" in2="effect5_dropShadow" result="effect6_dropShadow"/>
<feBlend mode="normal" in="SourceGraphic" in2="effect6_dropShadow" result="shape"/>
</filter>
<linearGradient id="paint0_linear" x1="171.046" y1="-8.07454" x2="-88.0738" y2="315.993" gradientUnits="userSpaceOnUse">
<stop stop-color="#191919"/>
<stop offset="1" stop-color="#212121"/>
</linearGradient>
<clipPath id="clip0">
<rect x="0.855469" y="0.941162" width="174" height="249" rx="15" fill="white"/>
</clipPath>
<clipPath id="clip1">
<rect width="124" height="124" fill="white" transform="translate(96.5308 84.8357)"/>
</clipPath>
<clipPath id="clip2">
<rect width="81" height="82" fill="white" transform="translate(-39.8389 193.613)"/>
</clipPath>
</defs>
</svg>
